<?xml version="1.0" encoding="UTF-8"?>
<!DOCTYPE svg PUBLIC "-//W3C//DTD SVG 1.1//EN" "http://www.w3.org/Graphics/SVG/1.1/DTD/svg11.dtd">
<!-- Creator: CorelDRAW 2019 (64-Bit) -->
<svg xmlns="http://www.w3.org/2000/svg" xml:space="preserve" width="104.648mm" height="85.669mm" version="1.1" style="shape-rendering:geometricPrecision; text-rendering:geometricPrecision; image-rendering:optimizeQuality; fill-rule:evenodd; clip-rule:evenodd"
viewBox="0 0 6193.26 5070.04"
 xmlns:xlink="http://www.w3.org/1999/xlink">
 <defs>
  <style type="text/css">
   <![CDATA[
    .fil0 {fill:#010101}
    .fil1 {fill:#797979}
   ]]>
  </style>
 </defs>
 <g id="Layer_x0020_1">
  <metadata id="CorelCorpID_0Corel-Layer"/>
  <g id="_2604000116848">
   <path class="fil0" d="M5.02 977.61c-43.93,308.5 207.14,468.21 505.05,446.44 174.69,-12.77 129.16,-33.33 219.12,100.02 230.21,23.17 168.18,-58.15 242.54,-187.9 89.91,-69.49 748.44,-273.2 913.39,-318.18 343.41,-93.65 719.42,-162.7 1104.96,-141.21l0.13 370.63c-243.53,17.75 -854.61,2.98 -1166.89,3.24l-148.27 19.36 -2.2 113.5 2846.09 1.06 0.18 -133.06 -1315.41 -0.23 -0.54 -377.46c551.71,1.96 1048.72,95.32 1553.85,281.95 144.73,53.47 313.79,129.83 465.04,164.7 31.32,98.79 28,174.24 115.35,201.86 120.46,38.11 149.85,-28.62 203.24,-102.93 199.26,-11.97 320.1,45.81 480.83,-65.81 100.43,-69.75 189.67,-185.51 168.69,-355.1 -30.59,-354.81 -487.59,-422.77 -464.9,-16.26 76.58,65.38 97.69,93.77 228.43,63.05 -59.74,286.68 -382.55,169.86 -624.21,81.23 -765.13,-280.63 -1201.87,-524.33 -2127.83,-524.02 9.29,-406.41 61.38,-161.74 90.68,-356.43 50.03,-332.39 -440.09,-321.63 -393.36,-6.28 13.82,93.3 56.97,100.64 77.48,147.96 22.99,53.02 13.76,142.71 14.13,211.22 -1101.03,72.75 -1147.55,162.1 -2139.11,533.23 -112.78,42.21 -221.95,78.34 -345.62,86.87 -171.25,11.8 -235.33,-17.6 -266.49,-175.75 265.89,69.46 293.22,-207.26 149.74,-300.57 -121.12,-78.76 -344.21,-32.56 -384.08,234.87z"/>
   <path class="fil0" d="M1673.25 1839.78l207.59 0.28 6.17 2420.08 827.48 608.38c84.96,62.71 184.86,152.65 283.47,201.51l4.02 -2095.1 -608.12 1.83 0.95 185.5 204.25 7.89 -0.27 1337.82c-66.16,-33.02 -316.38,-216.87 -368.18,-273.31l-1.83 -2325.77 361.18 -5.15 9.66 834.44 401.63 5.2 0.36 -1036.35 -1328.39 0.24 0.04 132.5z"/>
   <path class="fil0" d="M3190.66 1875.46l-0.27 3189.4c76.36,-10.39 205.69,-132.29 279,-187.09l837.72 -621.98 -1.48 -952.43 -339.28 -0.25 -2.61 764.53c0.02,211.49 4.2,174.86 -132.44,274 -92.48,67.1 -145.23,119.27 -234.79,163.95l-2.69 -2793.54 -403.5 -2.65 0.33 166.06z"/>
   <path class="fil0" d="M1551.22 3030.98c-694.24,171 -769.36,199.33 -1496.81,-1.24 423.17,832.17 1255.35,563.01 1496.81,1.24z"/>
   <polygon class="fil0" points="1464.84,1610.95 4729.03,1612.15 4728.42,1479.28 1465.33,1479.45 "/>
   <path class="fil0" d="M6140.86 3029.99c-457.65,102.83 -598.95,194.41 -1161.82,95.15 -120.39,-21.23 -236.44,-80.87 -344.46,-91.2 92.55,102.14 109.06,202.92 281.57,342.74 477.5,387.01 967.47,120.57 1224.71,-346.68z"/>
   <path class="fil0" d="M216.76 2967.24c105.32,33.42 112.36,-84.72 155.23,-184.65 77.37,-180.3 300.64,-744.29 367.78,-829.11l5.72 1047.87c16.68,58.76 -11.92,24.29 34.98,53.39 110.46,24.52 73.44,-33.7 71.46,-239.73l-0.7 -871.4c122.39,191.23 315.27,753 428.12,977.58 25.97,51.68 2.46,23.46 43.95,63.81 111.61,-23.85 89.81,-28.31 44.66,-128.22l-241.4 -554.88c-90,-207.3 -218.24,-566.51 -325.22,-742.06l-48.11 79.36c-14.94,31.77 -26,60.9 -37.38,87.77l-225.73 526.01c-51.81,119.8 -98.08,231.37 -150.4,350.88l-115.17 263.48c-2.65,6.67 -14.21,38.84 -14.87,43.38l7.07 56.52z"/>
   <path class="fil0" d="M5322.91 1977.14c-0.06,-98.82 -7.27,-21.36 32.09,-52.03 17.81,226.99 -34.49,985.33 18.63,1120.03 93.41,-8.83 69.44,65.46 68.87,-230.18l4.67 -888.41c14.59,19.62 15.84,19.57 36.62,46.42 19.45,101.96 259.81,629.07 331.78,796.23 42.37,98.41 53.58,232.74 163.53,196.67 23.61,-52.49 -18.78,-113.14 -43.43,-169.57l-541.15 -1235.25c-78.93,115.07 -257.44,571.86 -319.23,726.26 -52.58,131.41 -100.71,231.99 -157.4,363.98 -28.53,66.41 -53.3,122.84 -82.55,190.81 -48.12,111.84 -74.7,117.89 37.23,142.22 112.94,-130.37 330.45,-796.41 450.36,-1007.19z"/>
   <path class="fil1" d="M5322.91 1977.14c63.8,251.99 -17.43,784.48 21.46,1075.87l108.95 12.91c29.14,-193.06 -8.79,-970.77 15.5,-1061.87 1.38,-5.2 5.56,-11.93 6.91,-15.96 1.33,-3.97 5.33,-10.1 8.06,-15.11 -20.78,-26.85 -22.03,-26.8 -36.62,-46.42l-4.67 888.41c0.57,295.64 24.54,221.35 -68.87,230.18 -53.12,-134.7 -0.82,-893.05 -18.63,-1120.03 -39.36,30.66 -32.15,-46.79 -32.09,52.03z"/>
  </g>
 </g>
</svg>
